<?xml version="1.0" standalone="no"?>
<!DOCTYPE svg PUBLIC "-//W3C//DTD SVG 20010904//EN"
 "http://www.w3.org/TR/2001/REC-SVG-20010904/DTD/svg10.dtd">
<svg version="1.0" xmlns="http://www.w3.org/2000/svg"
 width="1280.000000pt" height="1002.000000pt" viewBox="0 0 1280.000000 1002.000000"
 preserveAspectRatio="xMidYMid meet">
<metadata>
Created by potrace 1.15, written by Peter Selinger 2001-2017
</metadata>
<g transform="translate(0.000000,1002.000000) scale(0.100000,-0.100000)"
fill="#000000" stroke="none">
<path d="M6061 9875 c-63 -8 -221 -33 -351 -55 -377 -64 -454 -70 -838 -70
-354 0 -471 -7 -629 -40 -373 -77 -788 -311 -1112 -625 -287 -279 -437 -486
-861 -1185 -266 -439 -309 -507 -430 -680 -103 -147 -133 -205 -163 -308 -21
-75 -22 -90 -19 -542 1 -279 -2 -513 -8 -585 -31 -337 -119 -549 -380 -910
-312 -433 -382 -532 -507 -720 -445 -667 -582 -988 -533 -1246 6 -30 13 -74
15 -99 2 -25 16 -80 30 -123 132 -404 590 -822 1135 -1035 296 -115 480 -152
790 -159 358 -8 619 31 1020 154 107 32 278 99 290 112 3 3 21 14 40 24 19 10
27 15 17 12 -83 -24 -46 -6 81 39 282 101 515 199 752 317 263 130 344 182
575 364 195 155 293 222 365 252 65 27 81 28 74 8 -12 -31 8 -65 72 -118 36
-30 98 -94 138 -143 39 -49 83 -100 97 -114 50 -48 82 -75 74 -61 -6 10 -4 12
4 7 7 -5 10 -15 7 -23 -3 -8 -2 -12 3 -8 5 3 43 -48 84 -112 238 -377 375
-701 603 -1418 112 -352 155 -476 161 -458 12 34 -145 548 -312 1023 -167 474
-307 824 -417 1043 -75 151 -88 195 -88 304 0 51 4 93 9 93 5 0 11 19 15 42 4
24 22 98 42 166 20 68 33 130 30 138 -4 10 -2 12 6 8 7 -5 9 -2 5 9 -7 19 16
87 102 310 34 88 60 164 59 169 -2 6 -80 -72 -173 -173 -324 -352 -484 -507
-708 -687 -116 -93 -397 -280 -543 -360 -672 -372 -1620 -644 -2334 -669 -514
-18 -950 115 -1216 371 l-69 66 27 24 c14 13 63 38 107 55 105 40 184 94 300
206 216 208 386 453 411 591 4 27 13 77 20 111 32 166 -92 297 -345 364 -111
30 -325 31 -525 1 -141 -21 -212 -27 -257 -24 -20 2 -21 6 -17 48 5 56 2 50
194 379 86 149 210 365 275 480 298 532 295 528 581 910 241 322 301 408 348
502 38 78 55 125 60 174 3 19 9 62 14 96 23 143 -17 260 -178 523 -105 170
-137 236 -156 317 -27 117 2 225 82 309 21 22 30 30 20 17 -42 -51 41 -13 176
79 119 81 294 233 376 326 87 99 193 241 317 422 212 312 337 469 504 637 384
386 787 595 1384 718 267 55 379 62 642 41 124 -10 406 -22 645 -26 453 -9
550 -17 748 -66 459 -113 1136 -470 2032 -1073 660 -444 1194 -863 1535 -1205
199 -199 278 -293 395 -468 135 -203 264 -498 310 -708 6 -30 14 -62 17 -70 4
-8 5 -21 4 -28 -1 -8 2 -19 8 -26 19 -22 32 -293 21 -437 -22 -278 -83 -496
-215 -764 -177 -358 -431 -692 -816 -1070 -216 -212 -364 -335 -546 -456 -397
-260 -838 -388 -1298 -376 -195 5 -286 22 -382 71 -254 128 -379 458 -424
1116 -13 199 -7 932 11 1225 6 99 24 398 40 665 46 761 52 885 52 1205 0 490
-38 759 -149 1040 -123 313 -375 613 -606 721 -75 35 -164 34 -207 -2 -69 -59
-99 -174 -80 -313 7 -47 14 -102 16 -122 5 -58 58 -192 110 -279 59 -98 149
-213 314 -395 249 -276 304 -349 386 -512 28 -56 54 -100 56 -97 9 9 28 -115
39 -260 21 -264 -13 -689 -131 -1636 -102 -813 -124 -1072 -124 -1410 0 -210
4 -290 19 -385 10 -66 18 -132 18 -147 0 -16 3 -28 6 -28 3 0 6 -15 7 -33 1
-44 58 -216 102 -302 136 -273 358 -449 661 -525 465 -117 1165 49 1789 425
78 46 172 106 209 132 520 360 1027 902 1358 1452 89 149 155 187 252 146 19
-8 97 -63 172 -122 277 -218 427 -331 481 -363 l55 -32 -40 44 c-22 23 28 -23
111 -105 83 -81 158 -147 167 -147 27 0 20 32 -22 115 -113 217 -456 612 -770
885 -151 131 -144 102 -81 323 22 76 42 157 44 180 2 23 14 107 26 187 24 165
29 402 10 540 -61 452 -272 773 -850 1289 -1225 1096 -2884 2176 -3831 2497
-140 47 -288 85 -424 110 -127 22 -448 27 -594 9z m-2601 -8110 c-19 -7 -42
-13 -50 -13 -8 0 1 6 20 13 19 7 42 13 50 13 8 0 -1 -6 -20 -13z"/>
<path d="M3910 6984 c-171 -33 -217 -95 -176 -240 8 -27 17 -69 20 -93 18
-124 219 -417 370 -539 134 -109 263 -143 393 -104 80 25 154 74 273 182 47
42 120 103 164 135 57 42 83 68 95 96 13 31 23 40 49 45 19 4 36 13 39 20 22
59 -119 214 -257 281 -146 70 -333 124 -635 183 -156 30 -285 43 -335 34z"/>
</g>
</svg>
